<?xml version="1.0" encoding="UTF-8" standalone="no"?>
<!DOCTYPE svg PUBLIC "-//W3C//DTD SVG 1.1//EN"
 "http://www.w3.org/Graphics/SVG/1.1/DTD/svg11.dtd">
<!-- Generated by graphviz version 14.1.2 (0)
 -->
<!-- Title: EShopDatabase Pages: 1 -->
<svg width="1073pt" height="572pt"
 viewBox="0.00 0.00 1073.00 572.00" xmlns="http://www.w3.org/2000/svg" xmlns:xlink="http://www.w3.org/1999/xlink">
<g id="graph0" class="graph" transform="scale(1 1) rotate(0) translate(4 567.5)">
<title>EShopDatabase</title>
<polygon fill="#f8f8f8" stroke="none" points="-4,4 -4,-567.5 1069.25,-567.5 1069.25,4 -4,4"/>
<text xml:space="preserve" text-anchor="middle" x="532.62" y="-544.3" font-family="Helvetica,sans-Serif" font-size="16.00">E&#45;Shop Database Schema</text>
<!-- Category -->
<g id="node1" class="node">
<title>Category</title>
<path fill="#ddeeff" stroke="#555555" d="M612.75,-314.25C612.75,-314.25 729.25,-314.25 729.25,-314.25 735.25,-314.25 741.25,-320.25 741.25,-326.25 741.25,-326.25 741.25,-409.75 741.25,-409.75 741.25,-415.75 735.25,-421.75 729.25,-421.75 729.25,-421.75 612.75,-421.75 612.75,-421.75 606.75,-421.75 600.75,-415.75 600.75,-409.75 600.75,-409.75 600.75,-326.25 600.75,-326.25 600.75,-320.25 606.75,-314.25 612.75,-314.25"/>
<text xml:space="preserve" text-anchor="middle" x="671" y="-407.3" font-family="Helvetica,sans-Serif" font-size="11.00">Category</text>
<polyline fill="none" stroke="#555555" points="600.75,-400.25 741.25,-400.25"/>
<text xml:space="preserve" text-anchor="middle" x="671" y="-385.8" font-family="Helvetica,sans-Serif" font-size="11.00">category_id : INT (PK)</text>
<polyline fill="none" stroke="#555555" points="600.75,-378.75 741.25,-378.75"/>
<text xml:space="preserve" text-anchor="middle" x="671" y="-364.3" font-family="Helvetica,sans-Serif" font-size="11.00">name : VARCHAR(100)</text>
<polyline fill="none" stroke="#555555" points="600.75,-357.25 741.25,-357.25"/>
<text xml:space="preserve" text-anchor="middle" x="671" y="-342.8" font-family="Helvetica,sans-Serif" font-size="11.00">description : TEXT</text>
<polyline fill="none" stroke="#555555" points="600.75,-335.75 741.25,-335.75"/>
<text xml:space="preserve" text-anchor="middle" x="671" y="-321.3" font-family="Helvetica,sans-Serif" font-size="11.00">parent_id : INT (FK)</text>
</g>
<!-- Category&#45;&gt;Category -->
<g id="edge1" class="edge">
<title>Category:e&#45;&gt;Category:e</title>
<path fill="none" stroke="#888888" d="M741.25,-325C764.06,-296 809.69,-296 809.69,-357.25 809.69,-412.04 773.18,-417.82 749.15,-397.67"/>
<polygon fill="#888888" stroke="#888888" points="751.77,-395.34 742.3,-390.59 746.74,-400.21 751.77,-395.34"/>
<text xml:space="preserve" text-anchor="middle" x="824.69" y="-365.07" font-family="Helvetica,sans-Serif" font-size="9.00">parent</text>
</g>
<!-- Product -->
<g id="node2" class="node">
<title>Product</title>
<path fill="#ddeeff" stroke="#555555" d="M318.38,-346.75C318.38,-346.75 434.88,-346.75 434.88,-346.75 440.88,-346.75 446.88,-352.75 446.88,-358.75 446.88,-358.75 446.88,-485.25 446.88,-485.25 446.88,-491.25 440.88,-497.25 434.88,-497.25 434.88,-497.25 318.38,-497.25 318.38,-497.25 312.38,-497.25 306.38,-491.25 306.38,-485.25 306.38,-485.25 306.38,-358.75 306.38,-358.75 306.38,-352.75 312.38,-346.75 318.38,-346.75"/>
<text xml:space="preserve" text-anchor="middle" x="376.62" y="-482.8" font-family="Helvetica,sans-Serif" font-size="11.00">Product</text>
<polyline fill="none" stroke="#555555" points="306.38,-475.75 446.88,-475.75"/>
<text xml:space="preserve" text-anchor="middle" x="376.62" y="-461.3" font-family="Helvetica,sans-Serif" font-size="11.00">product_id : INT (PK)</text>
<polyline fill="none" stroke="#555555" points="306.38,-454.25 446.88,-454.25"/>
<text xml:space="preserve" text-anchor="middle" x="376.62" y="-439.8" font-family="Helvetica,sans-Serif" font-size="11.00">name : VARCHAR(200)</text>
<polyline fill="none" stroke="#555555" points="306.38,-432.75 446.88,-432.75"/>
<text xml:space="preserve" text-anchor="middle" x="376.62" y="-418.3" font-family="Helvetica,sans-Serif" font-size="11.00">description : TEXT</text>
<polyline fill="none" stroke="#555555" points="306.38,-411.25 446.88,-411.25"/>
<text xml:space="preserve" text-anchor="middle" x="376.62" y="-396.8" font-family="Helvetica,sans-Serif" font-size="11.00">price : DECIMAL(10,2)</text>
<polyline fill="none" stroke="#555555" points="306.38,-389.75 446.88,-389.75"/>
<text xml:space="preserve" text-anchor="middle" x="376.62" y="-375.3" font-family="Helvetica,sans-Serif" font-size="11.00">stock_qty : INT</text>
<polyline fill="none" stroke="#555555" points="306.38,-368.25 446.88,-368.25"/>
<text xml:space="preserve" text-anchor="middle" x="376.62" y="-353.8" font-family="Helvetica,sans-Serif" font-size="11.00">category_id : INT (FK)</text>
</g>
<!-- Product&#45;&gt;Category -->
<g id="edge2" class="edge">
<title>Product:cat&#45;&gt;Category:id</title>
<path fill="none" stroke="#888888" d="M447.88,-357.5C513.36,-357.5 529.56,-385.98 589.47,-389.2"/>
<polygon fill="#888888" stroke="#888888" points="589.15,-392.7 599.24,-389.46 589.33,-385.7 589.15,-392.7"/>
<text xml:space="preserve" text-anchor="middle" x="534.12" y="-386.84" font-family="Helvetica,sans-Serif" font-size="9.00">belongs to</text>
</g>
<!-- Customer -->
<g id="node3" class="node">
<title>Customer</title>
<path fill="#ddffdd" stroke="#555555" d="M612.75,-126.5C612.75,-126.5 729.25,-126.5 729.25,-126.5 735.25,-126.5 741.25,-132.5 741.25,-138.5 741.25,-138.5 741.25,-243.5 741.25,-243.5 741.25,-249.5 735.25,-255.5 729.25,-255.5 729.25,-255.5 612.75,-255.5 612.75,-255.5 606.75,-255.5 600.75,-249.5 600.75,-243.5 600.75,-243.5 600.75,-138.5 600.75,-138.5 600.75,-132.5 606.75,-126.5 612.75,-126.5"/>
<text xml:space="preserve" text-anchor="middle" x="671" y="-241.05" font-family="Helvetica,sans-Serif" font-size="11.00">Customer</text>
<polyline fill="none" stroke="#555555" points="600.75,-234 741.25,-234"/>
<text xml:space="preserve" text-anchor="middle" x="671" y="-219.55" font-family="Helvetica,sans-Serif" font-size="11.00">customer_id : INT (PK)</text>
<polyline fill="none" stroke="#555555" points="600.75,-212.5 741.25,-212.5"/>
<text xml:space="preserve" text-anchor="middle" x="671" y="-198.05" font-family="Helvetica,sans-Serif" font-size="11.00">email : VARCHAR(255)</text>
<polyline fill="none" stroke="#555555" points="600.75,-191 741.25,-191"/>
<text xml:space="preserve" text-anchor="middle" x="671" y="-176.55" font-family="Helvetica,sans-Serif" font-size="11.00">name : VARCHAR(100)</text>
<polyline fill="none" stroke="#555555" points="600.75,-169.5 741.25,-169.5"/>
<text xml:space="preserve" text-anchor="middle" x="671" y="-155.05" font-family="Helvetica,sans-Serif" font-size="11.00">phone : VARCHAR(20)</text>
<polyline fill="none" stroke="#555555" points="600.75,-148 741.25,-148"/>
<text xml:space="preserve" text-anchor="middle" x="671" y="-133.55" font-family="Helvetica,sans-Serif" font-size="11.00">address_id : INT (FK)</text>
</g>
<!-- Address -->
<g id="node4" class="node">
<title>Address</title>
<path fill="#ddffdd" stroke="#555555" d="M909,-0.5C909,-0.5 1053.25,-0.5 1053.25,-0.5 1059.25,-0.5 1065.25,-6.5 1065.25,-12.5 1065.25,-12.5 1065.25,-117.5 1065.25,-117.5 1065.25,-123.5 1059.25,-129.5 1053.25,-129.5 1053.25,-129.5 909,-129.5 909,-129.5 903,-129.5 897,-123.5 897,-117.5 897,-117.5 897,-12.5 897,-12.5 897,-6.5 903,-0.5 909,-0.5"/>
<text xml:space="preserve" text-anchor="middle" x="981.12" y="-115.05" font-family="Helvetica,sans-Serif" font-size="11.00">Address</text>
<polyline fill="none" stroke="#555555" points="897,-108 1065.25,-108"/>
<text xml:space="preserve" text-anchor="middle" x="981.12" y="-93.55" font-family="Helvetica,sans-Serif" font-size="11.00">address_id : INT (PK)</text>
<polyline fill="none" stroke="#555555" points="897,-86.5 1065.25,-86.5"/>
<text xml:space="preserve" text-anchor="middle" x="981.12" y="-72.05" font-family="Helvetica,sans-Serif" font-size="11.00">street : VARCHAR(255)</text>
<polyline fill="none" stroke="#555555" points="897,-65 1065.25,-65"/>
<text xml:space="preserve" text-anchor="middle" x="981.12" y="-50.55" font-family="Helvetica,sans-Serif" font-size="11.00">city : VARCHAR(100)</text>
<polyline fill="none" stroke="#555555" points="897,-43.5 1065.25,-43.5"/>
<text xml:space="preserve" text-anchor="middle" x="981.12" y="-29.05" font-family="Helvetica,sans-Serif" font-size="11.00">postal_code : VARCHAR(20)</text>
<polyline fill="none" stroke="#555555" points="897,-22 1065.25,-22"/>
<text xml:space="preserve" text-anchor="middle" x="981.12" y="-7.55" font-family="Helvetica,sans-Serif" font-size="11.00">country : VARCHAR(100)</text>
</g>
<!-- Customer&#45;&gt;Address -->
<g id="edge3" class="edge">
<title>Customer:adr&#45;&gt;Address:id</title>
<path fill="none" stroke="#888888" d="M741.25,-137.25C808.81,-137.25 823.95,-101.51 885.78,-97.6"/>
<polygon fill="#888888" stroke="#888888" points="885.6,-101.1 895.49,-97.3 885.38,-94.11 885.6,-101.1"/>
<text xml:space="preserve" text-anchor="middle" x="819.12" y="-133.24" font-family="Helvetica,sans-Serif" font-size="9.00">default address</text>
</g>
<!-- Order -->
<g id="node5" class="node">
<title>Order</title>
<path fill="#fff0cc" stroke="#555555" d="M297.75,-126.75C297.75,-126.75 455.5,-126.75 455.5,-126.75 461.5,-126.75 467.5,-132.75 467.5,-138.75 467.5,-138.75 467.5,-265.25 467.5,-265.25 467.5,-271.25 461.5,-277.25 455.5,-277.25 455.5,-277.25 297.75,-277.25 297.75,-277.25 291.75,-277.25 285.75,-271.25 285.75,-265.25 285.75,-265.25 285.75,-138.75 285.75,-138.75 285.75,-132.75 291.75,-126.75 297.75,-126.75"/>
<text xml:space="preserve" text-anchor="middle" x="376.62" y="-262.8" font-family="Helvetica,sans-Serif" font-size="11.00">Order</text>
<polyline fill="none" stroke="#555555" points="285.75,-255.75 467.5,-255.75"/>
<text xml:space="preserve" text-anchor="middle" x="376.62" y="-241.3" font-family="Helvetica,sans-Serif" font-size="11.00">order_id : INT (PK)</text>
<polyline fill="none" stroke="#555555" points="285.75,-234.25 467.5,-234.25"/>
<text xml:space="preserve" text-anchor="middle" x="376.62" y="-219.8" font-family="Helvetica,sans-Serif" font-size="11.00">customer_id : INT (FK)</text>
<polyline fill="none" stroke="#555555" points="285.75,-212.75 467.5,-212.75"/>
<text xml:space="preserve" text-anchor="middle" x="376.62" y="-198.3" font-family="Helvetica,sans-Serif" font-size="11.00">ship_addr_id : INT (FK)</text>
<polyline fill="none" stroke="#555555" points="285.75,-191.25 467.5,-191.25"/>
<text xml:space="preserve" text-anchor="middle" x="376.62" y="-176.8" font-family="Helvetica,sans-Serif" font-size="11.00">order_date : DATETIME</text>
<polyline fill="none" stroke="#555555" points="285.75,-169.75 467.5,-169.75"/>
<text xml:space="preserve" text-anchor="middle" x="376.62" y="-155.3" font-family="Helvetica,sans-Serif" font-size="11.00">status : ENUM</text>
<polyline fill="none" stroke="#555555" points="285.75,-148.25 467.5,-148.25"/>
<text xml:space="preserve" text-anchor="middle" x="376.62" y="-133.8" font-family="Helvetica,sans-Serif" font-size="11.00">total_amount : DECIMAL(12,2)</text>
</g>
<!-- Order&#45;&gt;Customer -->
<g id="edge4" class="edge">
<title>Order:cus&#45;&gt;Customer:id</title>
<path fill="none" stroke="#888888" d="M467.5,-223.5C522.79,-223.5 539.37,-223.28 589.51,-223.25"/>
<polygon fill="#888888" stroke="#888888" points="589.24,-226.75 599.24,-223.25 589.24,-219.75 589.24,-226.75"/>
<text xml:space="preserve" text-anchor="middle" x="534.12" y="-226.15" font-family="Helvetica,sans-Serif" font-size="9.00">placed by</text>
</g>
<!-- Order&#45;&gt;Address -->
<g id="edge5" class="edge">
<title>Order:adr&#45;&gt;Address:id</title>
<path fill="none" stroke="#888888" d="M467.5,-202C546.09,-202 527.16,-113.34 600.75,-85.75 706.16,-46.23 742.02,-78.5 854,-90 868.91,-91.53 874.89,-95.03 885.79,-96.54"/>
<polygon fill="#888888" stroke="#888888" points="885.29,-100.01 895.49,-97.15 885.73,-93.03 885.29,-100.01"/>
<text xml:space="preserve" text-anchor="middle" x="671" y="-88.45" font-family="Helvetica,sans-Serif" font-size="9.00">ship to</text>
</g>
<!-- OrderItem -->
<g id="node6" class="node">
<title>OrderItem</title>
<path fill="#fff0cc" stroke="#555555" d="M12,-406.5C12,-406.5 150.25,-406.5 150.25,-406.5 156.25,-406.5 162.25,-412.5 162.25,-418.5 162.25,-418.5 162.25,-523.5 162.25,-523.5 162.25,-529.5 156.25,-535.5 150.25,-535.5 150.25,-535.5 12,-535.5 12,-535.5 6,-535.5 0,-529.5 0,-523.5 0,-523.5 0,-418.5 0,-418.5 0,-412.5 6,-406.5 12,-406.5"/>
<text xml:space="preserve" text-anchor="middle" x="81.12" y="-521.05" font-family="Helvetica,sans-Serif" font-size="11.00">OrderItem</text>
<polyline fill="none" stroke="#555555" points="0,-514 162.25,-514"/>
<text xml:space="preserve" text-anchor="middle" x="81.12" y="-499.55" font-family="Helvetica,sans-Serif" font-size="11.00">item_id : INT (PK)</text>
<polyline fill="none" stroke="#555555" points="0,-492.5 162.25,-492.5"/>
<text xml:space="preserve" text-anchor="middle" x="81.12" y="-478.05" font-family="Helvetica,sans-Serif" font-size="11.00">order_id : INT (FK)</text>
<polyline fill="none" stroke="#555555" points="0,-471 162.25,-471"/>
<text xml:space="preserve" text-anchor="middle" x="81.12" y="-456.55" font-family="Helvetica,sans-Serif" font-size="11.00">product_id : INT (FK)</text>
<polyline fill="none" stroke="#555555" points="0,-449.5 162.25,-449.5"/>
<text xml:space="preserve" text-anchor="middle" x="81.12" y="-435.05" font-family="Helvetica,sans-Serif" font-size="11.00">quantity : INT</text>
<polyline fill="none" stroke="#555555" points="0,-428 162.25,-428"/>
<text xml:space="preserve" text-anchor="middle" x="81.12" y="-413.55" font-family="Helvetica,sans-Serif" font-size="11.00">unit_price : DECIMAL(10,2)</text>
</g>
<!-- OrderItem&#45;&gt;Product -->
<g id="edge7" class="edge">
<title>OrderItem:prd&#45;&gt;Product:id</title>
<path fill="none" stroke="#888888" d="M162.25,-460.25C184.94,-460.25 183.48,-439.12 205.25,-432.75 221.25,-428.07 226.55,-428.82 242.75,-432.75 269.02,-439.12 273.27,-458.53 294.09,-463.71"/>
<polygon fill="#888888" stroke="#888888" points="293.54,-467.17 303.87,-464.83 294.33,-460.22 293.54,-467.17"/>
<text xml:space="preserve" text-anchor="middle" x="224" y="-435.45" font-family="Helvetica,sans-Serif" font-size="9.00">refers to</text>
</g>
<!-- OrderItem&#45;&gt;Order -->
<g id="edge6" class="edge">
<title>OrderItem:ord&#45;&gt;Order:id</title>
<path fill="none" stroke="#888888" d="M162.25,-481.75C201.4,-481.75 218.08,-476.4 242.75,-446 297.74,-378.26 203.58,-256.57 274.6,-245.77"/>
<polygon fill="#888888" stroke="#888888" points="274.51,-249.29 284.24,-245.1 274.02,-242.3 274.51,-249.29"/>
<text xml:space="preserve" text-anchor="middle" x="224" y="-478.57" font-family="Helvetica,sans-Serif" font-size="9.00">part of</text>
</g>
<!-- Payment -->
<g id="node7" class="node">
<title>Payment</title>
<path fill="#ffe0e0" stroke="#555555" d="M13.12,-148.75C13.12,-148.75 149.12,-148.75 149.12,-148.75 155.12,-148.75 161.12,-154.75 161.12,-160.75 161.12,-160.75 161.12,-287.25 161.12,-287.25 161.12,-293.25 155.12,-299.25 149.12,-299.25 149.12,-299.25 13.12,-299.25 13.12,-299.25 7.12,-299.25 1.12,-293.25 1.12,-287.25 1.12,-287.25 1.12,-160.75 1.12,-160.75 1.12,-154.75 7.12,-148.75 13.12,-148.75"/>
<text xml:space="preserve" text-anchor="middle" x="81.12" y="-284.8" font-family="Helvetica,sans-Serif" font-size="11.00">Payment</text>
<polyline fill="none" stroke="#555555" points="1.12,-277.75 161.12,-277.75"/>
<text xml:space="preserve" text-anchor="middle" x="81.12" y="-263.3" font-family="Helvetica,sans-Serif" font-size="11.00">payment_id : INT (PK)</text>
<polyline fill="none" stroke="#555555" points="1.12,-256.25 161.12,-256.25"/>
<text xml:space="preserve" text-anchor="middle" x="81.12" y="-241.8" font-family="Helvetica,sans-Serif" font-size="11.00">order_id : INT (FK)</text>
<polyline fill="none" stroke="#555555" points="1.12,-234.75 161.12,-234.75"/>
<text xml:space="preserve" text-anchor="middle" x="81.12" y="-220.3" font-family="Helvetica,sans-Serif" font-size="11.00">payment_date : DATETIME</text>
<polyline fill="none" stroke="#555555" points="1.12,-213.25 161.12,-213.25"/>
<text xml:space="preserve" text-anchor="middle" x="81.12" y="-198.8" font-family="Helvetica,sans-Serif" font-size="11.00">amount : DECIMAL(12,2)</text>
<polyline fill="none" stroke="#555555" points="1.12,-191.75 161.12,-191.75"/>
<text xml:space="preserve" text-anchor="middle" x="81.12" y="-177.3" font-family="Helvetica,sans-Serif" font-size="11.00">method : ENUM</text>
<polyline fill="none" stroke="#555555" points="1.12,-170.25 161.12,-170.25"/>
<text xml:space="preserve" text-anchor="middle" x="81.12" y="-155.8" font-family="Helvetica,sans-Serif" font-size="11.00">status : ENUM</text>
</g>
<!-- Payment&#45;&gt;Order -->
<g id="edge8" class="edge">
<title>Payment:ord&#45;&gt;Order:id</title>
<path fill="none" stroke="#888888" d="M162.12,-245.5C213.1,-245.5 228.6,-245.07 274.45,-245.01"/>
<polygon fill="#888888" stroke="#888888" points="274.24,-248.51 284.24,-245 274.23,-241.51 274.24,-248.51"/>
<text xml:space="preserve" text-anchor="middle" x="224" y="-248.07" font-family="Helvetica,sans-Serif" font-size="9.00">pays for</text>
</g>
</g>
</svg>
