<?xml version="1.0" encoding="UTF-8" standalone="no"?>
<!DOCTYPE svg PUBLIC "-//W3C//DTD SVG 1.1//EN"
 "http://www.w3.org/Graphics/SVG/1.1/DTD/svg11.dtd">
<!-- Generated by graphviz version 14.1.2 (0)
 -->
<!-- Title: SoftwareArchitecture Pages: 1 -->
<svg width="1009pt" height="507pt"
 viewBox="0.00 0.00 1009.00 507.00" xmlns="http://www.w3.org/2000/svg" xmlns:xlink="http://www.w3.org/1999/xlink">
<g id="graph0" class="graph" transform="scale(1 1) rotate(0) translate(4 502.88)">
<title>SoftwareArchitecture</title>
<polygon fill="#f8f8f8" stroke="none" points="-4,4 -4,-502.88 1005,-502.88 1005,4 -4,4"/>
<text xml:space="preserve" text-anchor="middle" x="500.5" y="-479.68" font-family="Helvetica,sans-Serif" font-size="16.00">Software Architecture Overview</text>
<g id="clust1" class="cluster">
<title>cluster_frontend</title>
<polygon fill="#e8f4fd" stroke="#4a90d9" stroke-width="2" points="32,-383.88 32,-463.38 361,-463.38 361,-383.88 32,-383.88"/>
<text xml:space="preserve" text-anchor="middle" x="196.5" y="-444.18" font-family="Helvetica,sans-Serif" font-size="16.00">Frontend</text>
</g>
<g id="clust2" class="cluster">
<title>cluster_gateway</title>
<polygon fill="#fef9e7" stroke="#f39c12" stroke-width="2" points="8,-141.38 8,-342.12 237,-342.12 237,-141.38 8,-141.38"/>
<text xml:space="preserve" text-anchor="middle" x="122.5" y="-322.93" font-family="Helvetica,sans-Serif" font-size="16.00">API Layer</text>
</g>
<g id="clust3" class="cluster">
<title>cluster_services</title>
<polygon fill="#eafaf1" stroke="#27ae60" stroke-width="2" points="264,-141.38 264,-220.88 779,-220.88 779,-141.38 264,-141.38"/>
<text xml:space="preserve" text-anchor="middle" x="521.5" y="-201.68" font-family="Helvetica,sans-Serif" font-size="16.00">Backend Services</text>
</g>
<g id="clust4" class="cluster">
<title>cluster_data</title>
<polygon fill="#f5eef8" stroke="#8e44ad" stroke-width="2" points="193,-8 193,-99.62 668,-99.62 668,-8 193,-8"/>
<text xml:space="preserve" text-anchor="middle" x="430.5" y="-80.42" font-family="Helvetica,sans-Serif" font-size="16.00">Data Tier</text>
</g>
<g id="clust5" class="cluster">
<title>cluster_external</title>
<polygon fill="#fdedec" stroke="#e74c3c" stroke-width="2" points="696,-14.06 696,-93.56 993,-93.56 993,-14.06 696,-14.06"/>
<text xml:space="preserve" text-anchor="middle" x="844.5" y="-74.36" font-family="Helvetica,sans-Serif" font-size="16.00">External Services</text>
</g>
<!-- WebApp -->
<g id="node1" class="node">
<title>WebApp</title>
<path fill="#aed6f1" stroke="black" d="M92.38,-427.88C92.38,-427.88 51.62,-427.88 51.62,-427.88 45.62,-427.88 39.62,-421.88 39.62,-415.88 39.62,-415.88 39.62,-403.88 39.62,-403.88 39.62,-397.88 45.62,-391.88 51.62,-391.88 51.62,-391.88 92.38,-391.88 92.38,-391.88 98.38,-391.88 104.38,-397.88 104.38,-403.88 104.38,-403.88 104.38,-415.88 104.38,-415.88 104.38,-421.88 98.38,-427.88 92.38,-427.88"/>
<text xml:space="preserve" text-anchor="middle" x="72" y="-412.93" font-family="Helvetica,sans-Serif" font-size="11.00">Web App</text>
<text xml:space="preserve" text-anchor="middle" x="72" y="-399.43" font-family="Helvetica,sans-Serif" font-size="11.00">(React)</text>
</g>
<!-- Gateway -->
<g id="node4" class="node">
<title>Gateway</title>
<path fill="#fad7a0" stroke="black" d="M216.88,-306.62C216.88,-306.62 155.12,-306.62 155.12,-306.62 149.12,-306.62 143.12,-300.62 143.12,-294.62 143.12,-294.62 143.12,-282.62 143.12,-282.62 143.12,-276.62 149.12,-270.62 155.12,-270.62 155.12,-270.62 216.88,-270.62 216.88,-270.62 222.88,-270.62 228.88,-276.62 228.88,-282.62 228.88,-282.62 228.88,-294.62 228.88,-294.62 228.88,-300.62 222.88,-306.62 216.88,-306.62"/>
<text xml:space="preserve" text-anchor="middle" x="186" y="-284.93" font-family="Helvetica,sans-Serif" font-size="11.00">API Gateway</text>
</g>
<!-- WebApp&#45;&gt;Gateway -->
<g id="edge1" class="edge">
<title>WebApp&#45;&gt;Gateway</title>
<path fill="none" stroke="#2980b9" stroke-width="2" d="M81.12,-391.42C81.12,-358.95 81.12,-295 81.12,-295 81.12,-295 129.71,-295 129.71,-295"/>
<polygon fill="#2980b9" stroke="#2980b9" stroke-width="2" points="129.71,-298.5 139.71,-295 129.71,-291.5 129.71,-298.5"/>
<text xml:space="preserve" text-anchor="middle" x="115.75" y="-353.38" font-family="Helvetica,sans-Serif" font-size="10.00">HTTPS</text>
</g>
<!-- MobileApp -->
<g id="node2" class="node">
<title>MobileApp</title>
<path fill="#aed6f1" stroke="black" d="M212.38,-427.88C212.38,-427.88 159.62,-427.88 159.62,-427.88 153.62,-427.88 147.62,-421.88 147.62,-415.88 147.62,-415.88 147.62,-403.88 147.62,-403.88 147.62,-397.88 153.62,-391.88 159.62,-391.88 159.62,-391.88 212.38,-391.88 212.38,-391.88 218.38,-391.88 224.38,-397.88 224.38,-403.88 224.38,-403.88 224.38,-415.88 224.38,-415.88 224.38,-421.88 218.38,-427.88 212.38,-427.88"/>
<text xml:space="preserve" text-anchor="middle" x="186" y="-412.93" font-family="Helvetica,sans-Serif" font-size="11.00">Mobile App</text>
<text xml:space="preserve" text-anchor="middle" x="186" y="-399.43" font-family="Helvetica,sans-Serif" font-size="11.00">(Flutter)</text>
</g>
<!-- MobileApp&#45;&gt;Gateway -->
<g id="edge2" class="edge">
<title>MobileApp&#45;&gt;Gateway</title>
<path fill="none" stroke="#2980b9" stroke-width="2" d="M186,-391.46C186,-391.46 186,-319.84 186,-319.84"/>
<polygon fill="#2980b9" stroke="#2980b9" stroke-width="2" points="189.5,-319.84 186,-309.84 182.5,-319.84 189.5,-319.84"/>
</g>
<!-- DesktopApp -->
<g id="node3" class="node">
<title>DesktopApp</title>
<path fill="#aed6f1" stroke="black" d="M340.88,-427.88C340.88,-427.88 279.12,-427.88 279.12,-427.88 273.12,-427.88 267.12,-421.88 267.12,-415.88 267.12,-415.88 267.12,-403.88 267.12,-403.88 267.12,-397.88 273.12,-391.88 279.12,-391.88 279.12,-391.88 340.88,-391.88 340.88,-391.88 346.88,-391.88 352.88,-397.88 352.88,-403.88 352.88,-403.88 352.88,-415.88 352.88,-415.88 352.88,-421.88 346.88,-427.88 340.88,-427.88"/>
<text xml:space="preserve" text-anchor="middle" x="310" y="-412.93" font-family="Helvetica,sans-Serif" font-size="11.00">Desktop App</text>
<text xml:space="preserve" text-anchor="middle" x="310" y="-399.43" font-family="Helvetica,sans-Serif" font-size="11.00">(Electron)</text>
</g>
<!-- DesktopApp&#45;&gt;Gateway -->
<g id="edge3" class="edge">
<title>DesktopApp&#45;&gt;Gateway</title>
<path fill="none" stroke="#2980b9" stroke-width="2" d="M325.96,-391.57C325.96,-360.07 325.96,-299 325.96,-299 325.96,-299 242.16,-299 242.16,-299"/>
<polygon fill="#2980b9" stroke="#2980b9" stroke-width="2" points="242.16,-295.5 232.16,-299 242.16,-302.5 242.16,-295.5"/>
</g>
<!-- Auth -->
<g id="node5" class="node">
<title>Auth</title>
<path fill="#fad7a0" stroke="black" d="M89.88,-185.38C89.88,-185.38 28.12,-185.38 28.12,-185.38 22.12,-185.38 16.12,-179.38 16.12,-173.38 16.12,-173.38 16.12,-161.38 16.12,-161.38 16.12,-155.38 22.12,-149.38 28.12,-149.38 28.12,-149.38 89.88,-149.38 89.88,-149.38 95.88,-149.38 101.88,-155.38 101.88,-161.38 101.88,-161.38 101.88,-173.38 101.88,-173.38 101.88,-179.38 95.88,-185.38 89.88,-185.38"/>
<text xml:space="preserve" text-anchor="middle" x="59" y="-170.43" font-family="Helvetica,sans-Serif" font-size="11.00">Auth Service</text>
<text xml:space="preserve" text-anchor="middle" x="59" y="-156.93" font-family="Helvetica,sans-Serif" font-size="11.00">(JWT)</text>
</g>
<!-- Gateway&#45;&gt;Auth -->
<g id="edge4" class="edge">
<title>Gateway&#45;&gt;Auth</title>
<path fill="none" stroke="#e67e22" stroke-width="2" d="M142.77,-283C106.43,-283 60.38,-283 60.38,-283 60.38,-283 60.38,-198.72 60.38,-198.72"/>
<polygon fill="#e67e22" stroke="#e67e22" stroke-width="2" points="63.88,-198.72 60.38,-188.72 56.88,-198.72 63.88,-198.72"/>
<text xml:space="preserve" text-anchor="middle" x="119.88" y="-232.12" font-family="Helvetica,sans-Serif" font-size="10.00">validate</text>
</g>
<!-- RateLimit -->
<g id="node6" class="node">
<title>RateLimit</title>
<path fill="#fad7a0" stroke="black" d="M216.75,-185.38C216.75,-185.38 157.25,-185.38 157.25,-185.38 151.25,-185.38 145.25,-179.38 145.25,-173.38 145.25,-173.38 145.25,-161.38 145.25,-161.38 145.25,-155.38 151.25,-149.38 157.25,-149.38 157.25,-149.38 216.75,-149.38 216.75,-149.38 222.75,-149.38 228.75,-155.38 228.75,-161.38 228.75,-161.38 228.75,-173.38 228.75,-173.38 228.75,-179.38 222.75,-185.38 216.75,-185.38"/>
<text xml:space="preserve" text-anchor="middle" x="187" y="-163.68" font-family="Helvetica,sans-Serif" font-size="11.00">Rate Limiter</text>
</g>
<!-- Gateway&#45;&gt;RateLimit -->
<g id="edge5" class="edge">
<title>Gateway&#45;&gt;RateLimit</title>
<path fill="none" stroke="#e67e22" stroke-dasharray="5,2" d="M187,-270.21C187,-270.21 187,-197.08 187,-197.08"/>
<polygon fill="#e67e22" stroke="#e67e22" points="190.5,-197.08 187,-187.08 183.5,-197.08 190.5,-197.08"/>
</g>
<!-- UserSvc -->
<g id="node7" class="node">
<title>UserSvc</title>
<path fill="#a9dfbf" stroke="black" d="M486.88,-185.38C486.88,-185.38 425.12,-185.38 425.12,-185.38 419.12,-185.38 413.12,-179.38 413.12,-173.38 413.12,-173.38 413.12,-161.38 413.12,-161.38 413.12,-155.38 419.12,-149.38 425.12,-149.38 425.12,-149.38 486.88,-149.38 486.88,-149.38 492.88,-149.38 498.88,-155.38 498.88,-161.38 498.88,-161.38 498.88,-173.38 498.88,-173.38 498.88,-179.38 492.88,-185.38 486.88,-185.38"/>
<text xml:space="preserve" text-anchor="middle" x="456" y="-163.68" font-family="Helvetica,sans-Serif" font-size="11.00">User Service</text>
</g>
<!-- Gateway&#45;&gt;UserSvc -->
<g id="edge6" class="edge">
<title>Gateway&#45;&gt;UserSvc</title>
<path fill="none" stroke="#27ae60" stroke-width="2" d="M229.08,-285C305.31,-285 456,-285 456,-285 456,-285 456,-198.78 456,-198.78"/>
<polygon fill="#27ae60" stroke="#27ae60" stroke-width="2" points="459.5,-198.78 456,-188.78 452.5,-198.78 459.5,-198.78"/>
<text xml:space="preserve" text-anchor="middle" x="409.75" y="-232.12" font-family="Helvetica,sans-Serif" font-size="10.00">route</text>
</g>
<!-- OrderSvc -->
<g id="node8" class="node">
<title>OrderSvc</title>
<path fill="#a9dfbf" stroke="black" d="M621.88,-185.38C621.88,-185.38 554.12,-185.38 554.12,-185.38 548.12,-185.38 542.12,-179.38 542.12,-173.38 542.12,-173.38 542.12,-161.38 542.12,-161.38 542.12,-155.38 548.12,-149.38 554.12,-149.38 554.12,-149.38 621.88,-149.38 621.88,-149.38 627.88,-149.38 633.88,-155.38 633.88,-161.38 633.88,-161.38 633.88,-173.38 633.88,-173.38 633.88,-179.38 627.88,-185.38 621.88,-185.38"/>
<text xml:space="preserve" text-anchor="middle" x="588" y="-163.68" font-family="Helvetica,sans-Serif" font-size="11.00">Order Service</text>
</g>
<!-- Gateway&#45;&gt;OrderSvc -->
<g id="edge7" class="edge">
<title>Gateway&#45;&gt;OrderSvc</title>
<path fill="none" stroke="#27ae60" stroke-width="2" d="M229.02,-292C332.73,-292 588,-292 588,-292 588,-292 588,-198.79 588,-198.79"/>
<polygon fill="#27ae60" stroke="#27ae60" stroke-width="2" points="591.5,-198.79 588,-188.79 584.5,-198.79 591.5,-198.79"/>
</g>
<!-- SearchSvc -->
<g id="node10" class="node">
<title>SearchSvc</title>
<path fill="#a9dfbf" stroke="black" d="M357.88,-185.38C357.88,-185.38 284.12,-185.38 284.12,-185.38 278.12,-185.38 272.12,-179.38 272.12,-173.38 272.12,-173.38 272.12,-161.38 272.12,-161.38 272.12,-155.38 278.12,-149.38 284.12,-149.38 284.12,-149.38 357.88,-149.38 357.88,-149.38 363.88,-149.38 369.88,-155.38 369.88,-161.38 369.88,-161.38 369.88,-173.38 369.88,-173.38 369.88,-179.38 363.88,-185.38 357.88,-185.38"/>
<text xml:space="preserve" text-anchor="middle" x="321" y="-163.68" font-family="Helvetica,sans-Serif" font-size="11.00">Search Service</text>
</g>
<!-- Gateway&#45;&gt;SearchSvc -->
<g id="edge8" class="edge">
<title>Gateway&#45;&gt;SearchSvc</title>
<path fill="none" stroke="#27ae60" stroke-width="2" d="M229.06,-278C261,-278 299.04,-278 299.04,-278 299.04,-278 299.04,-198.67 299.04,-198.67"/>
<polygon fill="#27ae60" stroke="#27ae60" stroke-width="2" points="302.54,-198.67 299.04,-188.67 295.54,-198.67 302.54,-198.67"/>
</g>
<!-- PostgreSQL -->
<g id="node11" class="node">
<title>PostgreSQL</title>
<path fill="#d7bde2" stroke="black" d="M411.88,-59.75C411.88,-62.16 394,-64.12 372,-64.12 350,-64.12 332.12,-62.16 332.12,-59.75 332.12,-59.75 332.12,-20.38 332.12,-20.38 332.12,-17.96 350,-16 372,-16 394,-16 411.88,-17.96 411.88,-20.38 411.88,-20.38 411.88,-59.75 411.88,-59.75"/>
<path fill="none" stroke="black" d="M411.88,-59.75C411.88,-57.34 394,-55.38 372,-55.38 350,-55.38 332.12,-57.34 332.12,-59.75"/>
<text xml:space="preserve" text-anchor="middle" x="372" y="-43.11" font-family="Helvetica,sans-Serif" font-size="11.00">PostgreSQL</text>
<text xml:space="preserve" text-anchor="middle" x="372" y="-29.61" font-family="Helvetica,sans-Serif" font-size="11.00">(primary)</text>
</g>
<!-- UserSvc&#45;&gt;PostgreSQL -->
<g id="edge11" class="edge">
<title>UserSvc&#45;&gt;PostgreSQL</title>
<path fill="none" stroke="#2c3e50" stroke-width="1.5" d="M412.8,-167C397.43,-167 383.88,-167 383.88,-167 383.88,-167 383.88,-76.81 383.88,-76.81"/>
<polygon fill="#2c3e50" stroke="#2c3e50" stroke-width="1.5" points="387.38,-76.81 383.88,-66.81 380.38,-76.81 387.38,-76.81"/>
</g>
<!-- Redis -->
<g id="node12" class="node">
<title>Redis</title>
<path fill="#d7bde2" stroke="black" d="M512.62,-59.75C512.62,-62.16 499.79,-64.12 484,-64.12 468.21,-64.12 455.38,-62.16 455.38,-59.75 455.38,-59.75 455.38,-20.38 455.38,-20.38 455.38,-17.96 468.21,-16 484,-16 499.79,-16 512.62,-17.96 512.62,-20.38 512.62,-20.38 512.62,-59.75 512.62,-59.75"/>
<path fill="none" stroke="black" d="M512.62,-59.75C512.62,-57.34 499.79,-55.38 484,-55.38 468.21,-55.38 455.38,-57.34 455.38,-59.75"/>
<text xml:space="preserve" text-anchor="middle" x="484" y="-43.11" font-family="Helvetica,sans-Serif" font-size="11.00">Redis</text>
<text xml:space="preserve" text-anchor="middle" x="484" y="-29.61" font-family="Helvetica,sans-Serif" font-size="11.00">(cache)</text>
</g>
<!-- UserSvc&#45;&gt;Redis -->
<g id="edge13" class="edge">
<title>UserSvc&#45;&gt;Redis</title>
<path fill="none" stroke="#c0392b" stroke-width="1.5" stroke-dasharray="5,2" d="M477.12,-149.13C477.12,-149.13 477.12,-76.64 477.12,-76.64"/>
<polygon fill="#c0392b" stroke="#c0392b" stroke-width="1.5" points="480.63,-76.64 477.13,-66.64 473.63,-76.64 480.63,-76.64"/>
<text xml:space="preserve" text-anchor="middle" x="448.25" y="-110.88" font-family="Helvetica,sans-Serif" font-size="10.00">cache</text>
</g>
<!-- OrderSvc&#45;&gt;PostgreSQL -->
<g id="edge12" class="edge">
<title>OrderSvc&#45;&gt;PostgreSQL</title>
<path fill="none" stroke="#2c3e50" stroke-width="1.5" d="M548.94,-148.93C548.94,-131.18 548.94,-107 548.94,-107 548.94,-107 397.88,-107 397.88,-107 397.88,-107 397.88,-76.12 397.88,-76.12"/>
<polygon fill="#2c3e50" stroke="#2c3e50" stroke-width="1.5" points="401.38,-76.12 397.88,-66.12 394.38,-76.12 401.38,-76.12"/>
</g>
<!-- OrderSvc&#45;&gt;Redis -->
<g id="edge14" class="edge">
<title>OrderSvc&#45;&gt;Redis</title>
<path fill="none" stroke="#c0392b" stroke-width="1.5" stroke-dasharray="5,2" d="M542.07,-167C523.23,-167 505.75,-167 505.75,-167 505.75,-167 505.75,-75.91 505.75,-75.91"/>
<polygon fill="#c0392b" stroke="#c0392b" stroke-width="1.5" points="509.25,-75.91 505.75,-65.91 502.25,-75.91 509.25,-75.91"/>
</g>
<!-- MsgQueue -->
<g id="node14" class="node">
<title>MsgQueue</title>
<polygon fill="#d7bde2" stroke="black" points="660.25,-58.06 555.75,-58.06 555.75,-54.06 551.75,-54.06 551.75,-50.06 555.75,-50.06 555.75,-30.06 551.75,-30.06 551.75,-26.06 555.75,-26.06 555.75,-22.06 660.25,-22.06 660.25,-58.06"/>
<polyline fill="none" stroke="black" points="555.75,-54.06 559.75,-54.06 559.75,-50.06 555.75,-50.06"/>
<polyline fill="none" stroke="black" points="555.75,-30.06 559.75,-30.06 559.75,-26.06 555.75,-26.06"/>
<text xml:space="preserve" text-anchor="middle" x="608" y="-43.11" font-family="Helvetica,sans-Serif" font-size="11.00">Message Queue</text>
<text xml:space="preserve" text-anchor="middle" x="608" y="-29.61" font-family="Helvetica,sans-Serif" font-size="11.00">(AMQP)</text>
</g>
<!-- OrderSvc&#45;&gt;MsgQueue -->
<g id="edge9" class="edge">
<title>OrderSvc&#45;&gt;MsgQueue</title>
<path fill="none" stroke="#8e44ad" stroke-width="2" stroke-dasharray="5,2" d="M594.81,-149.13C594.81,-149.13 594.81,-71.3 594.81,-71.3"/>
<polygon fill="#8e44ad" stroke="#8e44ad" stroke-width="2" points="598.31,-71.3 594.81,-61.3 591.31,-71.3 598.31,-71.3"/>
<text xml:space="preserve" text-anchor="middle" x="626.62" y="-110.88" font-family="Helvetica,sans-Serif" font-size="10.00">publish</text>
</g>
<!-- PaySvc -->
<g id="node17" class="node">
<title>PaySvc</title>
<path fill="#f1948a" stroke="black" d="M756.38,-58.06C756.38,-58.06 715.62,-58.06 715.62,-58.06 709.62,-58.06 703.62,-52.06 703.62,-46.06 703.62,-46.06 703.62,-34.06 703.62,-34.06 703.62,-28.06 709.62,-22.06 715.62,-22.06 715.62,-22.06 756.38,-22.06 756.38,-22.06 762.38,-22.06 768.38,-28.06 768.38,-34.06 768.38,-34.06 768.38,-46.06 768.38,-46.06 768.38,-52.06 762.38,-58.06 756.38,-58.06"/>
<text xml:space="preserve" text-anchor="middle" x="736" y="-43.11" font-family="Helvetica,sans-Serif" font-size="11.00">Payment</text>
<text xml:space="preserve" text-anchor="middle" x="736" y="-29.61" font-family="Helvetica,sans-Serif" font-size="11.00">(Stripe)</text>
</g>
<!-- OrderSvc&#45;&gt;PaySvc -->
<g id="edge18" class="edge">
<title>OrderSvc&#45;&gt;PaySvc</title>
<path fill="none" stroke="#e74c3c" stroke-width="2" d="M634.07,-167C652.22,-167 668.81,-167 668.81,-167 668.81,-167 668.81,-46 668.81,-46 668.81,-46 690.17,-46 690.17,-46"/>
<polygon fill="#e74c3c" stroke="#e74c3c" stroke-width="2" points="690.17,-49.5 700.17,-46 690.17,-42.5 690.17,-49.5"/>
<text xml:space="preserve" text-anchor="middle" x="708.5" y="-110.88" font-family="Helvetica,sans-Serif" font-size="10.00">charge</text>
</g>
<!-- NotifySvc -->
<g id="node9" class="node">
<title>NotifySvc</title>
<path fill="#a9dfbf" stroke="black" d="M758.62,-185.38C758.62,-185.38 689.38,-185.38 689.38,-185.38 683.38,-185.38 677.38,-179.38 677.38,-173.38 677.38,-173.38 677.38,-161.38 677.38,-161.38 677.38,-155.38 683.38,-149.38 689.38,-149.38 689.38,-149.38 758.62,-149.38 758.62,-149.38 764.62,-149.38 770.62,-155.38 770.62,-161.38 770.62,-161.38 770.62,-173.38 770.62,-173.38 770.62,-179.38 764.62,-185.38 758.62,-185.38"/>
<text xml:space="preserve" text-anchor="middle" x="724" y="-163.68" font-family="Helvetica,sans-Serif" font-size="11.00">Notify Service</text>
</g>
<!-- EmailSvc -->
<g id="node15" class="node">
<title>EmailSvc</title>
<path fill="#f1948a" stroke="black" d="M874.25,-58.06C874.25,-58.06 823.75,-58.06 823.75,-58.06 817.75,-58.06 811.75,-52.06 811.75,-46.06 811.75,-46.06 811.75,-34.06 811.75,-34.06 811.75,-28.06 817.75,-22.06 823.75,-22.06 823.75,-22.06 874.25,-22.06 874.25,-22.06 880.25,-22.06 886.25,-28.06 886.25,-34.06 886.25,-34.06 886.25,-46.06 886.25,-46.06 886.25,-52.06 880.25,-58.06 874.25,-58.06"/>
<text xml:space="preserve" text-anchor="middle" x="849" y="-43.11" font-family="Helvetica,sans-Serif" font-size="11.00">Email</text>
<text xml:space="preserve" text-anchor="middle" x="849" y="-29.61" font-family="Helvetica,sans-Serif" font-size="11.00">(SendGrid)</text>
</g>
<!-- NotifySvc&#45;&gt;EmailSvc -->
<g id="edge16" class="edge">
<title>NotifySvc&#45;&gt;EmailSvc</title>
<path fill="none" stroke="#e74c3c" stroke-width="1.5" d="M770.9,-161C806.37,-161 849,-161 849,-161 849,-161 849,-70.7 849,-70.7"/>
<polygon fill="#e74c3c" stroke="#e74c3c" stroke-width="1.5" points="852.5,-70.7 849,-60.7 845.5,-70.7 852.5,-70.7"/>
</g>
<!-- SMSSvc -->
<g id="node16" class="node">
<title>SMSSvc</title>
<path fill="#f1948a" stroke="black" d="M972.5,-58.06C972.5,-58.06 941.5,-58.06 941.5,-58.06 935.5,-58.06 929.5,-52.06 929.5,-46.06 929.5,-46.06 929.5,-34.06 929.5,-34.06 929.5,-28.06 935.5,-22.06 941.5,-22.06 941.5,-22.06 972.5,-22.06 972.5,-22.06 978.5,-22.06 984.5,-28.06 984.5,-34.06 984.5,-34.06 984.5,-46.06 984.5,-46.06 984.5,-52.06 978.5,-58.06 972.5,-58.06"/>
<text xml:space="preserve" text-anchor="middle" x="957" y="-43.11" font-family="Helvetica,sans-Serif" font-size="11.00">SMS</text>
<text xml:space="preserve" text-anchor="middle" x="957" y="-29.61" font-family="Helvetica,sans-Serif" font-size="11.00">(Twilio)</text>
</g>
<!-- NotifySvc&#45;&gt;SMSSvc -->
<g id="edge17" class="edge">
<title>NotifySvc&#45;&gt;SMSSvc</title>
<path fill="none" stroke="#e74c3c" stroke-width="1.5" d="M770.87,-173C838.91,-173 957,-173 957,-173 957,-173 957,-70.82 957,-70.82"/>
<polygon fill="#e74c3c" stroke="#e74c3c" stroke-width="1.5" points="960.5,-70.82 957,-60.82 953.5,-70.82 960.5,-70.82"/>
</g>
<!-- Elastic -->
<g id="node13" class="node">
<title>Elastic</title>
<path fill="#d7bde2" stroke="black" d="M289.38,-59.75C289.38,-62.16 269.49,-64.12 245,-64.12 220.51,-64.12 200.62,-62.16 200.62,-59.75 200.62,-59.75 200.62,-20.38 200.62,-20.38 200.62,-17.96 220.51,-16 245,-16 269.49,-16 289.38,-17.96 289.38,-20.38 289.38,-20.38 289.38,-59.75 289.38,-59.75"/>
<path fill="none" stroke="black" d="M289.38,-59.75C289.38,-57.34 269.49,-55.38 245,-55.38 220.51,-55.38 200.62,-57.34 200.62,-59.75"/>
<text xml:space="preserve" text-anchor="middle" x="245" y="-43.11" font-family="Helvetica,sans-Serif" font-size="11.00">Elasticsearch</text>
<text xml:space="preserve" text-anchor="middle" x="245" y="-29.61" font-family="Helvetica,sans-Serif" font-size="11.00">(index)</text>
</g>
<!-- SearchSvc&#45;&gt;Elastic -->
<g id="edge15" class="edge">
<title>SearchSvc&#45;&gt;Elastic</title>
<path fill="none" stroke="#16a085" stroke-width="1.5" d="M280.75,-149.13C280.75,-149.13 280.75,-75.73 280.75,-75.73"/>
<polygon fill="#16a085" stroke="#16a085" stroke-width="1.5" points="284.25,-75.73 280.75,-65.73 277.25,-75.73 284.25,-75.73"/>
</g>
<!-- MsgQueue&#45;&gt;NotifySvc -->
<g id="edge10" class="edge">
<title>MsgQueue&#45;&gt;NotifySvc</title>
<path fill="none" stroke="#8e44ad" stroke-width="2" stroke-dasharray="5,2" d="M660.72,-34C676.88,-34 690.5,-34 690.5,-34 690.5,-34 690.5,-136.08 690.5,-136.08"/>
<polygon fill="#8e44ad" stroke="#8e44ad" stroke-width="2" points="687,-136.08 690.5,-146.08 694,-136.08 687,-136.08"/>
<text xml:space="preserve" text-anchor="middle" x="795.12" y="-110.88" font-family="Helvetica,sans-Serif" font-size="10.00">consume</text>
</g>
</g>
</svg>
